<svg id="Layer_1" data-name="Layer 1" xmlns="http://www.w3.org/2000/svg" viewBox="0 0 855 561"><title>No internet</title><path d="M195.92,260.3c7.28-7.4,23.4-22.11,49-36.67,33.35-19,90.1-41.57,171.06-41.57,135.62,0,203.21,60.36,220.17,78.14L416,511.79Z" style="fill:#a0eaff"/><path d="M416,190.06c35.49,0,69.05,4.22,99.76,12.54a290.08,290.08,0,0,1,67.57,27.46,217.33,217.33,0,0,1,41.88,30.52l-81.08,92.64L416,499.64,287.87,353.22l-80.94-92.48c23-21.25,89.42-70.68,209.07-70.68m0-16c-161,0-230.83,86.11-230.83,86.11l90.66,103.59L416,523.94,556.17,363.76l90.66-103.59S580,174.06,416,174.06Z" style="fill:#51d6ff"/><path d="M556.17,363.76,416,523.94,275.83,363.76A287.55,287.55,0,0,1,416,328C475.34,328,522,344,556.17,363.76Z" style="fill:#51d6ff"/><rect x="390.16" y="226" width="51.68" height="148.88" style="fill:#fff"/><path d="M436.84,231V369.88H395.16V231h41.68m10-10H385.16V379.88h61.68V221Z" style="fill:#51d6ff"/><rect x="390.16" y="387.15" width="51.68" height="51.68" style="fill:#fff"/><path d="M436.84,392.15v41.68H395.16V392.15h41.68m10-10H385.16v61.68h61.68V382.15Z" style="fill:#51d6ff"/><circle cx="571.75" cy="523.75" r="19" style="fill:none;stroke:#a0eaff;stroke-miterlimit:10;stroke-width:7px"/><circle cx="246.5" cy="432.5" r="19" style="fill:none;stroke:#a0eaff;stroke-miterlimit:10;stroke-width:7px"/><line x1="265" y1="526.5" x2="234" y2="526.5" style="fill:none;stroke:#a0eaff;stroke-linecap:round;stroke-linejoin:round;stroke-width:7px"/><line x1="249.5" y1="542" x2="249.5" y2="511" style="fill:none;stroke:#a0eaff;stroke-linecap:round;stroke-linejoin:round;stroke-width:7px"/><line x1="608" y1="431" x2="582" y2="405" style="fill:none;stroke:#a0eaff;stroke-linecap:round;stroke-linejoin:round;stroke-width:7px"/><line x1="582" y1="431" x2="608" y2="405" style="fill:none;stroke:#a0eaff;stroke-linecap:round;stroke-linejoin:round;stroke-width:7px"/><polyline points="166 313 143 313 143 334 119 334 119 356 95 356" style="fill:none;stroke:#a0eaff;stroke-linecap:round;stroke-linejoin:round;stroke-width:7px"/><polyline points="734.61 330.15 718.66 313.59 703.53 328.16 686.88 310.87 671.04 326.13 654.39 308.85" style="fill:none;stroke:#a0eaff;stroke-linecap:round;stroke-linejoin:round;stroke-width:7px"/><path d="M271.39,141.49c-4-4.28-9.56-6.9-16.53-7.83,1.86-5.15,3.64-13.16,1.06-21.31s-8.83-14.53-18.6-18.94A45.6,45.6,0,0,0,218.63,89,32.57,32.57,0,0,0,194.5,99.53a37.44,37.44,0,0,0-7.57-19.76C179.64,70.63,167.8,66,151.75,66c-20.15,0-35.89,8.18-43.2,22.44a34.73,34.73,0,0,0-2.48,25.87,51.68,51.68,0,0,0-37.19,7.3C49.22,133.9,48.93,152.11,51.53,160l.9,2.76H277.58l.24-3.75C277.84,158.64,278.38,149,271.39,141.49Zm2.44,17.3H55.33S48.8,138.87,71,125a48,48,0,0,1,25.73-7.54,43.45,43.45,0,0,1,16.87,3.18C101.11,103.29,111.51,70,151.75,70c47.22,0,38.49,42.12,38.16,43.66.41-1,8.53-20.7,28.72-20.7a41.49,41.49,0,0,1,17.05,4.09c29.13,13.18,13.18,40.23,13.18,40.23C275.21,137.28,273.83,158.79,273.83,158.79Z" style="fill:#fff"/><path d="M274.31,138.75A29,29,0,0,0,260,130.56a35.73,35.73,0,0,0-.22-19.42c-2.94-9.28-9.93-16.47-20.77-21.38A49.64,49.64,0,0,0,218.63,85a35.61,35.61,0,0,0-21.45,6.93,38.44,38.44,0,0,0-7.13-14.61C182,67.14,169.08,62,151.75,62,130.05,62,113,71,105,86.62a39.22,39.22,0,0,0-4,23c-1.35-.11-2.76-.16-4.24-.16a55.75,55.75,0,0,0-30,8.76c-21.76,13.6-22,34.11-19,43.06l1.8,5.51h231.8l.48-7.49A29,29,0,0,0,274.31,138.75Zm-.48,20H55.33S48.8,138.87,71,125a48,48,0,0,1,25.73-7.54,43.45,43.45,0,0,1,16.87,3.18C101.11,103.29,111.51,70,151.75,70c47.22,0,38.49,42.12,38.16,43.66.41-1,8.53-20.7,28.72-20.7a41.49,41.49,0,0,1,17.05,4.09c29.13,13.18,13.18,40.23,13.18,40.23C275.21,137.28,273.83,158.79,273.83,158.79Z" style="fill:#a0eaff"/><line x1="244.89" y1="183.82" x2="35.5" y2="183.82" style="fill:none;stroke:#a0eaff;stroke-linecap:round;stroke-miterlimit:10;stroke-width:5px"/><line x1="197" y1="203" x2="13.5" y2="203" style="fill:none;stroke:#a0eaff;stroke-linecap:round;stroke-miterlimit:10;stroke-width:5px"/><path d="M544,96a44.52,44.52,0,0,1-.49-5.15c-1.34-.83-2.67-1.57-4-2.24s-2.63-1.26-3.93-1.78A53.11,53.11,0,0,0,515.82,83c-1.18,0-2.29,0-3.32.1a28.91,28.91,0,0,0-2.1-21.37c-6-11.8-19-18.57-35.62-18.57-13.23,0-23,3.85-29.06,11.43a30.32,30.32,0,0,0-6.1,14.82,26.85,26.85,0,0,0-19-7.67,37.58,37.58,0,0,0-15.44,3.67c-8.1,3.66-13.3,9-15.45,15.78-2,6.34-.86,12.57.56,16.85a21.88,21.88,0,0,0-12.9,6.43A21.27,21.27,0,0,0,372,119.26l.24,3.74H521.54a27,27,0,0,1,4.73-4c5.3-3.54,12.83-6,23.54-6A52.82,52.82,0,0,1,544,96ZM376,119s-1.12-17.4,20.2-17.4c0,0-12.9-21.88,10.66-32.54a33.49,33.49,0,0,1,13.79-3.31c16.77,0,23.25,16.77,23.25,16.77s-8.05-35.35,30.87-35.35c32.54,0,41,26.94,30.86,41A41.41,41.41,0,0,1,515.82,87a48.7,48.7,0,0,1,19.75,4.12,50.9,50.9,0,0,0,.56,6.07A59.84,59.84,0,0,0,538.2,106a43.1,43.1,0,0,0-16.37,6.36,35.11,35.11,0,0,0-7.44,6.65Z" style="fill:#fff"/><path d="M543.55,90.84a37.29,37.29,0,0,1,.12-4.59c-1.27-.72-2.54-1.37-3.81-2s-2.55-1.13-3.81-1.6A57.22,57.22,0,0,0,517.42,79,33.33,33.33,0,0,0,514,59.92c-6.76-13.19-21-20.75-39.18-20.75-14.51,0-25.34,4.35-32.19,12.94a32,32,0,0,0-5.45,10.33,30.26,30.26,0,0,0-16.48-4.69,41.59,41.59,0,0,0-17.09,4C392.14,66.94,387.68,74.54,386,80a29.92,29.92,0,0,0-.57,15.1,24.59,24.59,0,0,0-10.87,6.65A25.1,25.1,0,0,0,368,119.51l.48,7.49H518.45a26.68,26.68,0,0,1,3.09-4,27,27,0,0,1,4.73-4H376s-1.12-17.4,20.2-17.4c0,0-12.9-21.88,10.66-32.54a33.49,33.49,0,0,1,13.79-3.31c16.77,0,23.25,16.77,23.25,16.77s-8.05-35.35,30.87-35.35c32.54,0,41,26.94,30.86,41A41.41,41.41,0,0,1,515.82,87a48.7,48.7,0,0,1,19.75,4.12c1.36.6,2.74,1.29,4.12,2.07.62.35,1.25.72,1.87,1.11.89.55,1.71,1.11,2.48,1.68A44.52,44.52,0,0,1,543.55,90.84Z" style="fill:#a0eaff"/><line x1="584.5" y1="171" x2="844" y2="171" style="fill:none;stroke:#a0eaff;stroke-linecap:round;stroke-miterlimit:10;stroke-width:5px"/><line x1="626" y1="191" x2="802" y2="191" style="fill:none;stroke:#a0eaff;stroke-linecap:round;stroke-miterlimit:10;stroke-width:5px"/><path d="M810.93,96.61A90.49,90.49,0,0,0,763,83a89.07,89.07,0,0,0-10.53.61c5.28-12.31,4.72-27.26-1.91-40.2C740.29,23.44,718.17,12,689.81,12c-22.58,0-39.18,6.46-49.34,19.19-8,10.06-10.45,22.09-10.85,31.68-7.08-8.6-18.74-17.77-36.24-17.77-8.22,0-17,2.11-26.22,6.26-16.08,7.28-25.48,18.73-27.3,32.93a38.17,38.17,0,0,0-.31,4.31,42,42,0,0,0,.14,4.6c.09,1.12.22,2.25.4,3.4a57.45,57.45,0,0,0,3.53,12.68c-7.73.73-14.3,2.87-19.57,6.39a31,31,0,0,0-4.18,3.33,29,29,0,0,0-3.54,4,30.51,30.51,0,0,0-2.52,4,35.42,35.42,0,0,0-4,17.26l.24,3.74H831.28l1.11-2.21C832.52,145.52,845.61,118.29,810.93,96.61ZM828.81,144h-315a31.22,31.22,0,0,1,4.64-17,26.68,26.68,0,0,1,3.09-4,27,27,0,0,1,4.73-4c5.3-3.54,12.83-6,23.54-6A52.82,52.82,0,0,1,544,96a44.52,44.52,0,0,1-.49-5.15,37.29,37.29,0,0,1,.12-4.59c.92-11,6.89-23,25.14-31.25,9.29-4.2,17.45-5.9,24.57-5.9,29.88,0,41.43,29.9,41.43,29.9s-14.35-63,55-63c58,0,73,48,55,73A73.55,73.55,0,0,1,763,87a86.09,86.09,0,0,1,45.86,13C840.81,120,828.81,144,828.81,144Z" style="fill:#fff"/><path d="M838.76,128.57c-1.12-9.5-6.49-23.34-25.71-35.35A94.52,94.52,0,0,0,763,79q-2.49,0-4.74.12a52.44,52.44,0,0,0-4.14-37.53C743.14,20.24,719.72,8,689.81,8,666,8,648.3,15,637.35,28.7A54.27,54.27,0,0,0,626.55,54,48.82,48.82,0,0,0,593.38,41.1c-8.79,0-18.17,2.23-27.87,6.61-20.59,9.31-27.66,23.14-29.46,35-.21,1.41-.35,2.79-.43,4.13-.09,1.49-.1,2.93,0,4.31a50.9,50.9,0,0,0,.56,6.07A59.84,59.84,0,0,0,538.2,106a43.1,43.1,0,0,0-16.37,6.36,35.11,35.11,0,0,0-7.44,6.65,34.47,34.47,0,0,0-2.87,4,35.5,35.5,0,0,0-2.15,4,39.7,39.7,0,0,0-3.54,17.51l.48,7.49H833.75l2.22-4.42A35.75,35.75,0,0,0,838.76,128.57Zm-10,15.43h-315a31.22,31.22,0,0,1,4.64-17,26.68,26.68,0,0,1,3.09-4,27,27,0,0,1,4.73-4c5.3-3.54,12.83-6,23.54-6A52.82,52.82,0,0,1,544,96a44.52,44.52,0,0,1-.49-5.15,37.29,37.29,0,0,1,.12-4.59c.92-11,6.89-23,25.14-31.25,9.29-4.2,17.45-5.9,24.57-5.9,29.88,0,41.43,29.9,41.43,29.9s-14.35-63,55-63c58,0,73,48,55,73A73.55,73.55,0,0,1,763,87a86.09,86.09,0,0,1,45.86,13C840.81,120,828.81,144,828.81,144Z" style="fill:#a0eaff"/><rect x="697.5" y="426.5" width="31" height="31" style="fill:none;stroke:#a0eaff;stroke-linecap:round;stroke-linejoin:round;stroke-width:7px"/><rect x="129" y="410" width="31" height="31" transform="translate(343.2 22.45) rotate(45)" style="fill:none;stroke:#a0eaff;stroke-linecap:round;stroke-linejoin:round;stroke-width:7px"/><line x1="312.5" y1="140.5" x2="410.5" y2="140.5" style="fill:none;stroke:#a0eaff;stroke-linecap:round;stroke-miterlimit:10;stroke-width:5px"/><line x1="436.5" y1="140.5" x2="485.5" y2="140.5" style="fill:none;stroke:#a0eaff;stroke-linecap:round;stroke-miterlimit:10;stroke-width:5px"/><line x1="298.5" y1="116.5" x2="355.5" y2="116.5" style="fill:none;stroke:#a0eaff;stroke-linecap:round;stroke-miterlimit:10;stroke-width:5px"/><line x1="320.5" y1="94.5" x2="363.5" y2="94.5" style="fill:none;stroke:#a0eaff;stroke-linecap:round;stroke-miterlimit:10;stroke-width:5px"/></svg>