<svg id="Layer_1" data-name="Layer 1" xmlns="http://www.w3.org/2000/svg" xmlns:xlink="http://www.w3.org/1999/xlink" viewBox="0 0 986.85 885.45"><defs><linearGradient id="New_Gradient_Swatch_4" x1="537.31" y1="412.96" x2="518.5" y2="1304.03" gradientTransform="translate(-116.06 -99.65) rotate(-6.53)" gradientUnits="userSpaceOnUse"><stop offset="0" stop-color="#00c6ff"/><stop offset="0.36" stop-color="#0386fe"/><stop offset="0.66" stop-color="#0065dd"/><stop offset="0.71" stop-color="#025ed3"/><stop offset="0.8" stop-color="#094bb7"/><stop offset="0.91" stop-color="#132d8a"/><stop offset="1" stop-color="#1b1464"/></linearGradient></defs><title>sorry_were_closed</title><path d="M138,390.85a4.14,4.14,0,0,1-3.22-6.75L429.13,20.8a4.14,4.14,0,0,1,5.77-.66L803.4,307.59a4.14,4.14,0,1,1-5.1,6.53L433,29.18,141.26,389.32A4.13,4.13,0,0,1,138,390.85Z" style="fill:#f2f2f2"/><circle cx="432.21" cy="23.43" r="14.23" style="fill:#f2f2f2"/><path d="M144.53,864.7a81.38,81.38,0,0,1-80.88-72.15L22.27,431a81.51,81.51,0,0,1,71.62-90.14L833.5,256.19a79.56,79.56,0,0,1,9.25-.53,81.37,81.37,0,0,1,80.88,72.15L965,689.4a81.5,81.5,0,0,1-71.62,90.13L153.78,864.17A82,82,0,0,1,144.53,864.7Z" style="fill:url(#New_Gradient_Swatch_4)"/><path d="M842.75,241.83v27.65a67.94,67.94,0,0,1,67.15,59.9L951.28,691a67.87,67.87,0,0,1-59.47,74.83l-739.6,84.64a67.14,67.14,0,0,1-52.45-16.67A67.34,67.34,0,0,1,77.38,791L36,429.38a67.89,67.89,0,0,1,59.46-74.83l739.61-84.63a65.79,65.79,0,0,1,7.68-.44V241.83m0,0a96.71,96.71,0,0,0-10.83.62L92.32,327.09c-52,6-89.74,53.4-83.78,105.44L49.92,794.12c5.54,48.4,47,84.4,94.61,84.4a94.09,94.09,0,0,0,10.82-.62L895,793.27c52-6,89.73-53.41,83.78-105.44l-41.38-361.6c-5.54-48.4-47-84.4-94.61-84.4Z" style="fill:#f2f2f2"/><text transform="translate(174.44 541.35) rotate(-6.53)" style="font-size:138.44406127929688px;fill:#fdfdfd;font-family:BacktoBlackDemo, Back to Black Demo">Sorry,</text><text transform="translate(547.27 497.28) rotate(-6.53)" style="font-size:102.88113403320312px;fill:#f2f2f2;font-family:VisbyRoundCF-Regular, Visby Round CF"><tspan style="letter-spacing:-0.029999919910038208em">w</tspan><tspan x="80.35" y="0" style="letter-spacing:-0.020996621686759854em">e’</tspan><tspan x="156.69" y="0" style="letter-spacing:-0.029999919910038208em">r</tspan><tspan x="192.9" y="0">e</tspan></text><text transform="translate(161.82 738.8) rotate(-6.53)" style="font-size:185.76361083984375px;fill:#f2f2f2;font-family:VisbyRoundCF-Bold, Visby Round CF;font-weight:700">C<tspan x="123.34" y="0" style="letter-spacing:-0.04998634818342127em">L</tspan><tspan x="215.3" y="0" style="letter-spacing:-0.009993589724634152em">O</tspan><tspan x="361.5" y="0">SED</tspan></text><path d="M836.11,297.62a50.46,50.46,0,0,1,49.94,44.54L925.16,683.9a50.32,50.32,0,0,1-44.22,55.65L156.88,822.41a50.4,50.4,0,0,1-55.65-44.22L62.12,436.45a50.32,50.32,0,0,1,44.22-55.65L830.4,297.94a52,52,0,0,1,5.71-.32h0m0-3.54a52.52,52.52,0,0,0-6.11.35L105.94,377.29A54,54,0,0,0,58.6,436.85L97.71,778.6a54,54,0,0,0,53.45,47.68,55,55,0,0,0,6.12-.35l724.06-82.86a54,54,0,0,0,47.33-59.57l-39.1-341.74a54,54,0,0,0-53.46-47.68Z" style="fill:#f2f2f2"/></svg>