<svg id="Layer_1" data-name="Layer 1" xmlns="http://www.w3.org/2000/svg" viewBox="0 0 444 512"><title>sparkle_home_christmas_buttons</title><rect width="444" height="512" rx="60" style="fill:#fa3c4c"/><text transform="translate(136.3 380.29)" style="font-size:48px;fill:#fff;font-family:Montserrat-Bold, Montserrat;font-weight:700">Beauty</text><path d="M279.8,139.6c-22.75-22.75-57.77-1.07-57.77-1.07s-35.34-21.37-57.78,1.07l-50.66,49.9h0a8,8,0,0,0,.12,11.51C130.18,216.4,178,257,222,257c43.56,0,91.62-40.63,108.22-56a8,8,0,0,0,.17-11.54Zm-57.6,67.08h-.36a107.23,107.23,0,0,1-31.9-4.87l-34-9.29,47.35-12.37c6.24-.24,9.07,7.67,18.74,7.67,8.54,0,12.54-7.91,18.79-7.67l47.36,12.37-34.06,9.29A107.07,107.07,0,0,1,222.2,206.68Z" style="fill:#fff"/></svg>