<svg id="Layer_1" data-name="Layer 1" xmlns="http://www.w3.org/2000/svg" viewBox="0 0 444 512"><title>sparkle_home_christmas_buttons</title><rect width="444" height="512" rx="60" style="fill:#ffc300"/><text transform="translate(157.8 384.41)" style="font-size:48px;fill:#fff;font-family:Montserrat-Bold, Montserrat;font-weight:700"><tspan style="letter-spacing:-0.02099609375em">C</tspan><tspan x="34.13" y="0">oop</tspan></text><path d="M173.15,264.63c-10.45,0-18.94,8.06-18.94,18s8.49,18,18.94,18,18.93-8.06,18.93-18S183.58,264.63,173.15,264.63Zm0,26.29a8.33,8.33,0,1,1,8.76-8.32A8.56,8.56,0,0,1,173.15,290.92Z" style="fill:#fff"/><path d="M316,264.63c-10.44,0-18.94,8.06-18.94,18s8.5,18,18.94,18,18.94-8.06,18.94-18S326.41,264.63,316,264.63Zm0,26.29a8.33,8.33,0,1,1,8.76-8.32A8.56,8.56,0,0,1,316,290.92Z" style="fill:#fff"/><path d="M184.37,219.23l-23,15.64a4.72,4.72,0,0,0-.73.61,9.8,9.8,0,0,0-2.09,11.2,10.79,10.79,0,0,0,10,6.26H325.21a4.84,4.84,0,1,0,0-9.66H168.54a.66.66,0,0,1-.67-.42.59.59,0,0,1,0-.53l23.24-15.78.06.21,107.53-11.42c9.68,0,18.16-6.12,20.76-15l13.7-60.7a8.45,8.45,0,0,0-8.27-9.78l-156.25-1.79-4.41-15.26a5,5,0,0,0-4.91-3.55H114.18a4.83,4.83,0,1,0,0,9.65h41.23Z" style="fill:#fff"/></svg>