<svg id="Layer_1" data-name="Layer 1" xmlns="http://www.w3.org/2000/svg" viewBox="0 0 444 512"><title>sparkle_home_christmas_buttons</title><rect x="-0.2" width="444.4" height="512" rx="60" style="fill:#224982"/><text transform="translate(126.63 384.52)" style="font-size:48px;fill:#fff;font-family:Montserrat-Bold, Montserrat;font-weight:700">Express</text><path d="M313.89,157.7l-33.64-33.65A83.4,83.4,0,0,0,220.9,99.47h0a83.92,83.92,0,0,0-59.35,143.26l18.07,18.12a18.76,18.76,0,0,1,4.48-11.09L169.33,235A72.93,72.93,0,0,1,220.9,110.47h0a72.48,72.48,0,0,1,51.57,21.36l33.65,33.65a25.34,25.34,0,0,1-35.84,35.84l-12-12a18.77,18.77,0,0,1-11.16,4.39L262.5,209.1a36.34,36.34,0,0,0,51.39-51.4Z" style="fill:#fff;stroke:#224982;stroke-miterlimit:10;stroke-width:3px"/><path d="M179.34,225h0a58.79,58.79,0,1,1,83.14-83.14l33.65,33.65a11.2,11.2,0,0,1-15.84,15.84L265,176a18.8,18.8,0,0,1-4.46,11.09l12,12a22.2,22.2,0,0,0,31.39-31.4l-33.64-33.65a69.78,69.78,0,0,0-98.69,98.69h0l14.77,14.81a18.77,18.77,0,0,1,11.16-4.39Z" style="fill:#fff;stroke:#224982;stroke-miterlimit:10;stroke-width:3px"/><path d="M223.26,293.43a40.41,40.41,0,0,1-24.9-8.58A22.88,22.88,0,0,1,175.58,262c0-.46,0-.92,0-1.38a22.66,22.66,0,0,1,5.42-13.45,24.4,24.4,0,0,1,2.7-2.68,22.59,22.59,0,0,1,13.54-5.31c.38,0,.76,0,1.15,0A22.89,22.89,0,0,1,221.21,260a7.41,7.41,0,0,0,2,.29,7.13,7.13,0,0,0,4.85-1.87l.27-.25a7.28,7.28,0,0,0,0-10.25l-16.79-16.78-2.4-2.35L192.35,212a40.38,40.38,0,0,1,54-59.93A22.89,22.89,0,0,1,269,174.88c0,.46,0,.92,0,1.37a22.6,22.6,0,0,1-5.42,13.44,22.76,22.76,0,0,1-16.23,8q-.58,0-1.17,0a22.89,22.89,0,0,1-22.79-21.15,7.25,7.25,0,0,0-7.58,11.94l16.78,16.78,2.41,2.35,16.84,16.84a40.39,40.39,0,0,1-28.55,68.94Zm-24.82-36.87a5.3,5.3,0,0,0-3.1,1,5.42,5.42,0,0,0,3.1,9.87,5.34,5.34,0,0,0,3.16-1,5.45,5.45,0,0,0,1.28-1.3,5.35,5.35,0,0,0,1-3.11A5.44,5.44,0,0,0,198.44,256.56Zm47.71-87.11a5.31,5.31,0,0,0-3.16,1,5.42,5.42,0,0,0,3.16,9.83,5.35,5.35,0,0,0,3.11-1,5.45,5.45,0,0,0,1.3-1.28,5.34,5.34,0,0,0,1-3.16A5.43,5.43,0,0,0,246.15,169.45Z" style="fill:#fff"/><path d="M220.9,147a36.08,36.08,0,0,1,24,9.06c.41,0,.82,0,1.23,0A18.85,18.85,0,0,1,265,174.88c0,.38,0,.76,0,1.13a18.8,18.8,0,0,1-4.46,11.09,19.48,19.48,0,0,1-2.23,2.22,18.77,18.77,0,0,1-11.16,4.39l-1,0a18.85,18.85,0,0,1-18.85-18.85c0-.24,0-.48,0-.72A11.25,11.25,0,0,0,213,191.35l16.79,16.78h0l.39.39,1.9,1.84.11.12L249,227.32a36.39,36.39,0,0,1-25.72,62.11h0a36.07,36.07,0,0,1-23.53-8.63c-.43,0-.86.05-1.29.05A18.86,18.86,0,0,1,179.58,262c0-.38,0-.76,0-1.14a18.76,18.76,0,0,1,4.48-11.09,17.91,17.91,0,0,1,2.23-2.21,18.77,18.77,0,0,1,11.16-4.39l.95,0A18.86,18.86,0,0,1,217.3,262c0,.2,0,.39,0,.58a11.24,11.24,0,0,0,13.52-1.19l.41-.38a11.26,11.26,0,0,0,0-15.9l-16.79-16.79-2.29-2.23L212,226l-16.84-16.84A36.39,36.39,0,0,1,220.9,147h0m25.25,37.29a9.42,9.42,0,0,0,5.41-1.7,9.79,9.79,0,0,0,2.24-2.21,9.43,9.43,0,1,0-7.65,3.91m-47.71,87.12a9.39,9.39,0,0,0,5.51-1.78,9.55,9.55,0,0,0,2.2-2.24A9.42,9.42,0,0,0,193,254.27a9.59,9.59,0,0,0-2.24,2.21,9.42,9.42,0,0,0,7.64,14.94m24.82,18h0m0,0h0M220.9,139h0a44.39,44.39,0,0,0-31.38,75.77l16.84,16.84.18.18L208.8,234l16.75,16.74a3.26,3.26,0,0,1,0,4.59l-.12.12a3.23,3.23,0,0,1-.81.53,26.89,26.89,0,0,0-26.18-20.85l-1.35,0a26.6,26.6,0,0,0-15.91,6.25,26.94,26.94,0,0,0-3.17,3.15,26.56,26.56,0,0,0-6.37,15.8q-.06.87-.06,1.62A26.89,26.89,0,0,0,197,288.81a44.39,44.39,0,0,0,57.68-67.15L237.8,204.82l-.18-.18-1.9-1.85-.36-.35-16.75-16.75a3.26,3.26,0,0,1,1.24-5.37,26.9,26.9,0,0,0,26.3,21.41l1.37,0a26.63,26.63,0,0,0,15.9-6.26,25.49,25.49,0,0,0,3.17-3.15,26.61,26.61,0,0,0,6.37-15.8c0-.58.05-1.11.05-1.61a26.89,26.89,0,0,0-25.23-26.81A44.33,44.33,0,0,0,220.9,139Zm25.25,37.29a1.44,1.44,0,0,1-1.42-1.42,1.36,1.36,0,0,1,.25-.81,1.66,1.66,0,0,1,.35-.35,1.37,1.37,0,0,1,.82-.27,1.44,1.44,0,0,1,1.43,1.43,1.37,1.37,0,0,1-.27.82,1.3,1.3,0,0,1-.35.35,1.36,1.36,0,0,1-.81.25Zm-47.71,87.12A1.45,1.45,0,0,1,197,262a1.37,1.37,0,0,1,.27-.82,1.66,1.66,0,0,1,.35-.35,1.41,1.41,0,0,1,.81-.25,1.45,1.45,0,0,1,1.43,1.42,1.37,1.37,0,0,1-.26.81,1.3,1.3,0,0,1-.35.35,1.34,1.34,0,0,1-.82.27Z" style="fill:#224982"/></svg>