<svg id="Layer_1" data-name="Layer 1" xmlns="http://www.w3.org/2000/svg" viewBox="0 0 444 512"><title>sparkle_home_christmas_buttons</title><rect width="444" height="512" rx="60" style="fill:#39c93c"/><text transform="translate(154.8 380.74)" style="font-size:48px;fill:#fff;font-family:Montserrat-Bold, Montserrat;font-weight:700">Fresh</text><path d="M240.33,255.05c.5-2.24,1.12-4.48,1.75-6.65a155.31,155.31,0,0,1,12.12-31.53,166.46,166.46,0,0,1,18.6-29.1,155.57,155.57,0,0,1,24.43-25.19,160.76,160.76,0,0,0-29,20.89,186.43,186.43,0,0,0-24.57,26.74A166.07,166.07,0,0,0,225,241.06c-9.58-31-19.9-110.69,110.75-142.22C335.79,98.84,362.65,266.68,240.33,255.05Z" style="fill:#fff"/><path d="M180.2,218.86a259.6,259.6,0,0,1,20.65,23.26c-66.54,35.07-95.34-67.72-95.34-67.72,95.83-18.91,103.61,46.08,104.17,59.82a274.1,274.1,0,0,0-25.5-20.09,251.05,251.05,0,0,0-30.35-18.34A266.82,266.82,0,0,1,180.2,218.86Z" style="fill:#fff"/></svg>