<svg id="Layer_1" data-name="Layer 1" xmlns="http://www.w3.org/2000/svg" viewBox="0 0 444 512"><title>sparkle_home_christmas_buttons</title><rect width="444" height="512" rx="60" style="fill:#9415f9"/><text transform="translate(158.44 380.49)" style="font-size:48.851318359375px;fill:#fff;font-family:Montserrat-Bold, Montserrat;font-weight:700"><tspan style="letter-spacing:-0.008975736525150553em">P</tspan><tspan x="32.63" y="0">arty</tspan></text><path d="M329,313.26s-24.4,6.68-66.76-3.84c-44.33-11-59.44-26-59.44-26L215.51,265A214.77,214.77,0,0,0,269,285.41a216.94,216.94,0,0,0,56.94,5.64Z" style="fill:#fff"/><path d="M323.7,275.27a216,216,0,0,1-99.17-23.42l79.68-115.72Z" style="fill:#fff"/><circle cx="304.05" cy="136.73" r="12.07" style="fill:#fff"/><path d="M230.5,213.61a2.81,2.81,0,0,1-.42,4.23,239.4,239.4,0,0,1-99,40,2.81,2.81,0,0,1-3.24-2.75l-2-152.59Z" style="fill:#fff"/><circle cx="126.15" cy="103.13" r="13.39" style="fill:#fff"/><path d="M330.51,148.32l.36,0c.17,0,.44-.08.65-.13a5.67,5.67,0,0,0,2.44-1.42c2.43.1.76-10,.06-7.67a5.21,5.21,0,0,0-1.29-1,3.42,3.42,0,0,0-.43-.21l-.15-.06c-.35-.13-.28-.09-.31-.1l.23.08.76.23,1.66.49c1.12.34,2.24.69,3.37,1.07,2.24.76,4.48,1.6,6.68,2.57a47.46,47.46,0,0,1,12.66,7.73,24.51,24.51,0,0,1,5.08,6.22,17.5,17.5,0,0,1,2.26,8.09,20,20,0,0,1-1.47,7.88,30.92,30.92,0,0,1-3.6,6.5c-.34.49-.71,1-1.06,1.44s-.66.84-1,1.27c-.62.86-1.22,1.73-1.78,2.62a27.46,27.46,0,0,0-2.71,5.56,14.3,14.3,0,0,0-.84,5.82,10,10,0,0,0,2.07,5.35,15.3,15.3,0,0,0,4.75,3.94,29.4,29.4,0,0,0,6,2.45,59.16,59.16,0,0,0,13.18,2,59.51,59.51,0,0,1-13.51-.64,30.86,30.86,0,0,1-6.65-1.92,17.62,17.62,0,0,1-6-4,13.27,13.27,0,0,1-3.44-6.7,18.21,18.21,0,0,1,.24-7.47,32.21,32.21,0,0,1,2.46-6.82c.52-1.07,1.08-2.12,1.68-3.14.29-.51.6-1,.91-1.52s.55-.89.81-1.34c2.05-3.58,3.33-7.49,2.86-10.83s-2.57-6.11-5.65-8.34a38.87,38.87,0,0,0-10.81-5.15c-2-.64-4-1.18-6.06-1.66-1-.24-2.07-.45-3.12-.66l-1.61-.31-.88-.17-.58-.13a6.53,6.53,0,0,1-.71-.23l-.2-.08-.47-.23a5.53,5.53,0,0,1-1.34-1c-.71,2.32-2.38-7.8.06-7.71a5.74,5.74,0,0,1,2.48-1.44,5.53,5.53,0,0,1,.71-.14l.46,0a5.5,5.5,0,1,1,.69,11Z" style="fill:#fff"/><path d="M327,119.82a20.77,20.77,0,0,1,2.64-.78c.8-.18,1.55-.31,2.29-.44,1.48-.24,2.92-.41,4.35-.55,2.85-.26,5.66-.37,8.48-.39a92.12,92.12,0,0,1,16.85,1.44,56.7,56.7,0,0,1,8.39,2.2,34.58,34.58,0,0,1,8.13,4,20.27,20.27,0,0,1,6.59,7.17,17.25,17.25,0,0,1,1.65,4.76,19.88,19.88,0,0,1,.23,4.85,27.74,27.74,0,0,1-2.28,8.72,41.81,41.81,0,0,1-1.89,3.86l-1.05,1.84-1,1.65a45.18,45.18,0,0,0-3.42,6.81A19.13,19.13,0,0,0,375.4,172,8.16,8.16,0,0,0,378,178.1a15.16,15.16,0,0,0,6.65,3.22c5.07,1.21,10.51,1.16,15.83.79-5.26.94-10.66,1.63-16.16,1a17.28,17.28,0,0,1-8-2.92,10.67,10.67,0,0,1-3-3.46,12.23,12.23,0,0,1-1.39-4.4,23.16,23.16,0,0,1,.83-8.71,51.28,51.28,0,0,1,2.93-7.92l.9-1.88.83-1.71c.51-1.14,1-2.29,1.39-3.45a21.45,21.45,0,0,0,1.32-6.86c.1-4.45-2.2-7.81-6.08-10s-8.78-3.37-13.72-4a82.55,82.55,0,0,0-15.17-.22c-2.54.19-5.07.47-7.52.87-1.23.2-2.44.43-3.59.71-.56.14-1.13.28-1.63.43a8.54,8.54,0,0,0-1.18.44,5.52,5.52,0,1,1-5.36-9.66,4.37,4.37,0,0,1,.69-.33Z" style="fill:#fff"/><path d="M102.18,117.76a8.33,8.33,0,0,0-1.25.13c-.52.07-1.09.2-1.66.32-1.15.26-2.34.58-3.53.94-2.38.72-4.78,1.58-7.14,2.53a81.85,81.85,0,0,0-13.53,6.87c-4.18,2.69-8.09,5.87-10.58,9.58s-3.1,7.74-1,11.69a21.42,21.42,0,0,0,4.2,5.58c.87.87,1.81,1.69,2.77,2.49l1.5,1.17,1.63,1.3a50.73,50.73,0,0,1,6.11,5.82,23.12,23.12,0,0,1,4.58,7.46,12.32,12.32,0,0,1,.69,4.57,10.78,10.78,0,0,1-1.2,4.43,17.23,17.23,0,0,1-5.92,6.15c-4.64,3-9.79,4.77-14.93,6.24,4.94-2,9.85-4.35,13.87-7.67a14.93,14.93,0,0,0,4.55-5.82,8.13,8.13,0,0,0-.36-6.6,19.22,19.22,0,0,0-4.47-5.68,45.49,45.49,0,0,0-6.07-4.61l-1.64-1L67,162.43c-1.15-.83-2.29-1.69-3.39-2.64A27.74,27.74,0,0,1,57.72,153a19.59,19.59,0,0,1-1.93-4.46,17.49,17.49,0,0,1-.61-5A20.16,20.16,0,0,1,58,134.17,34.81,34.81,0,0,1,63.5,127a56.34,56.34,0,0,1,6.57-5.66,92,92,0,0,1,14.51-8.7c2.53-1.23,5.1-2.36,7.78-3.38,1.34-.51,2.71-1,4.14-1.42.73-.21,1.46-.42,2.26-.6a17.72,17.72,0,0,1,2.71-.47l.49,0a5.52,5.52,0,1,1,1,11A5.21,5.21,0,0,1,102.18,117.76Z" style="fill:#fff"/><path d="M139.27,259.66c-5.8,0-8.36-1.27-8.79-2.35-.51-1.29,1.07-5.6,10.73-12.64,8.73-6.35,21.15-12.89,35-18.4C193.86,219.21,211,215,221.9,215c5.79,0,8.35,1.26,8.78,2.34.52,1.3-1.06,5.6-10.73,12.64-8.73,6.36-21.14,12.9-35,18.41-17.69,7.05-34.78,11.27-45.72,11.27Z" style="fill:#9415f9"/><path d="M221.9,217.5a16.39,16.39,0,0,1,6.22.86c-.51,1.23-2.69,4.86-11.59,11-8.43,5.8-20,11.74-32.46,16.72-17.16,6.84-34.32,11.09-44.8,11.09a16.76,16.76,0,0,1-6.23-.85c.52-1.23,2.7-4.87,11.6-11,8.43-5.79,20-11.73,32.46-16.72,17.15-6.84,34.31-11.09,44.8-11.09m0-5c-10.8,0-28.09,4-46.65,11.45-29,11.55-50,26.9-47.09,34.29,1.06,2.65,5.07,3.91,11.11,3.91,10.79,0,28.08-4,46.65-11.44,29-11.55,50-26.9,47.08-34.29-1.06-2.65-5.06-3.92-11.1-3.92Z" style="fill:#fff"/><path d="M162.59,196.89a3.58,3.58,0,0,0-3.23.81l-8,7.2-.83-10.74a3.6,3.6,0,0,0-1.78-2.83l-9.32-5.4,10-4.11a3.56,3.56,0,0,0,2.13-2.56l2.26-10.53,7,8.2a3.6,3.6,0,0,0,3.1,1.24l10.71-1.11-5.64,9.18a3.57,3.57,0,0,0-.22,3.33l4.36,9.84Z" style="fill:#9415f9"/><path d="M307.64,213.36a3.57,3.57,0,0,0-3.29.56l-5.45,4.17v-6.86a3.58,3.58,0,0,0-1.55-2.95l-5.65-3.89,6.52-2.12a3.54,3.54,0,0,0,2.33-2.38l2-6.57,4,5.54a3.6,3.6,0,0,0,3,1.48l6.85-.17-4,5.54a3.56,3.56,0,0,0-.48,3.31l2.28,6.46Z" style="fill:#9415f9"/><path d="M246.68,245.08a3.6,3.6,0,0,0-3.2-.94l-6.73,1.35,3-6.15a3.62,3.62,0,0,0-.09-3.34l-3.36-6,6.78,1a3.58,3.58,0,0,0,3.15-1.12l4.64-5,1.18,6.75a3.61,3.61,0,0,0,2,2.65l6.24,2.85-6.06,3.21a3.58,3.58,0,0,0-1.89,2.76l-.79,6.8Z" style="fill:#9415f9"/></svg>