<svg id="Layer_1" data-name="Layer 1" xmlns="http://www.w3.org/2000/svg" viewBox="0 0 444 512"><title>sparkle_home_christmas_buttons</title><rect width="444" height="512" rx="60" style="fill:#0084ff"/><text transform="translate(81.05 380.74)" style="font-size:48px;fill:#fff;font-family:Montserrat-Bold, Montserrat;font-weight:700">Homemade</text><path d="M335.58,155.12l-33,33.35a38,38,0,0,1-44.22,7.38,2.63,2.63,0,0,1-.47.72l-24.57,24.82,59.24,59.84a11.64,11.64,0,0,1,0,16.29,11.34,11.34,0,0,1-16.17,0l-59.19-59.83L158,297.52a11.28,11.28,0,0,1-16.12,0,11.63,11.63,0,0,1,0-16.29l59.23-59.84-23.79-24c-15.1,5.58-36.21-.69-52.33-17-20.09-20.3-24.82-48.44-10.58-62.86s42.14-9.64,62.22,10.66c16.17,16.29,22.35,37.62,16.81,52.88l23.79,24,24.57-24.82a3,3,0,0,1,.68-.46,38.09,38.09,0,0,1,6.69-44.06l33.65-34a7.73,7.73,0,0,1,11,0,8,8,0,0,1,0,11.13l-34.33,34.72a6.8,6.8,0,0,0-.47,9.25,6.45,6.45,0,0,0,9.39.22L303,122.16a7.73,7.73,0,0,1,11,0l1.44,1.49a7.9,7.9,0,0,1,0,11.09L281,169.54a6.7,6.7,0,0,0-1,8.31A6.43,6.43,0,0,0,290,179L324.57,144a7.73,7.73,0,0,1,11,0A7.91,7.91,0,0,1,335.58,155.12Z" style="fill:#fff"/></svg>