<svg xmlns="http://www.w3.org/2000/svg" xmlns:xlink="http://www.w3.org/1999/xlink" viewBox="0 0 1200 800"><defs><clipPath id="clip-path"><rect x="-1456.85" width="1200" height="800" style="fill:none"/></clipPath><clipPath id="clip-path-2"><rect width="1200" height="800" style="fill:none"/></clipPath><linearGradient id="linear-gradient" x1="600" y1="740.62" x2="600" y2="0.57" gradientUnits="userSpaceOnUse"><stop offset="0" stop-color="#c0f3f1"/><stop offset="0.42" stop-color="#bef2f1"/><stop offset="0.57" stop-color="#b7f0f1"/><stop offset="0.68" stop-color="#acebf2"/><stop offset="0.77" stop-color="#9be5f3"/><stop offset="0.84" stop-color="#85dcf4"/><stop offset="0.91" stop-color="#69d2f5"/><stop offset="0.97" stop-color="#4ac6f6"/><stop offset="1" stop-color="#36bef7"/></linearGradient><radialGradient id="radial-gradient" cx="902.53" cy="161.14" r="130.77" gradientUnits="userSpaceOnUse"><stop offset="0.4" stop-color="#ffc70c"/><stop offset="0.52" stop-color="#ffd443" stop-opacity="0.77"/><stop offset="0.76" stop-color="#ffeba7" stop-opacity="0.36"/><stop offset="0.92" stop-color="#fff9e6" stop-opacity="0.1"/><stop offset="1" stop-color="#fff" stop-opacity="0"/></radialGradient><linearGradient id="linear-gradient-2" x1="333.37" y1="68.73" x2="333.37" y2="245.51" gradientUnits="userSpaceOnUse"><stop offset="0" stop-color="#fff" stop-opacity="0"/><stop offset="1" stop-color="#63cff2"/></linearGradient><linearGradient id="linear-gradient-3" x1="80.8" y1="81.66" x2="80.8" y2="154.5" xlink:href="#linear-gradient-2"/><linearGradient id="linear-gradient-4" x1="631.75" y1="65.24" x2="631.75" y2="134.1" xlink:href="#linear-gradient-2"/><linearGradient id="linear-gradient-5" x1="1168.19" y1="20.16" x2="1168.19" y2="137.06" xlink:href="#linear-gradient-2"/><linearGradient id="linear-gradient-6" x1="600" y1="731.75" x2="600" y2="196.9" gradientUnits="userSpaceOnUse"><stop offset="0" stop-color="#a0e8f2"/><stop offset="0.57" stop-color="#89e1f5"/><stop offset="1" stop-color="#7ddef7"/></linearGradient><linearGradient id="linear-gradient-7" x1="600" y1="855.17" x2="600" y2="166.26" gradientUnits="userSpaceOnUse"><stop offset="0" stop-color="#63cff2"/><stop offset="1" stop-color="#31c3f7"/></linearGradient><linearGradient id="linear-gradient-8" x1="600" y1="805.05" x2="600" y2="333.88" gradientUnits="userSpaceOnUse"><stop offset="0" stop-color="#32a4ec"/><stop offset="1" stop-color="#339be8"/></linearGradient></defs><title>sparkle_home_christmas_night</title><g id="DAY"><g style="clip-path:url(#clip-path-2)"><g id="BG-2" data-name="BG"><path d="M0,900.22s212.41,70.1,600,70.1c394,0,600-70.1,600-70.1V0H0Z" style="fill:url(#linear-gradient)"/></g><g id="Sun_Rays" data-name="Sun Rays"><circle cx="902.53" cy="161.14" r="126.08" style="fill:url(#radial-gradient)"/></g><g id="Sun"><circle cx="902.53" cy="161.14" r="71.64" style="fill:#ffda00"/></g><g id="Clouds"><path d="M246.28,210.35s5.76,12.1,42.62,13,68.88-18,68.88-18,28.69,18,51.35,18,51.29-13,51.29-13,9.09,8.76,35.74,8.76,23.91-51.1-35.74-33.36c0,0-.48-38.5-45.45-48.64-30.59-6.9-48.69,11.18-48.69,11.18s12.07-56.87-62.07-56.87-57.93,70.69-57.93,70.69-5.87-12.9-36-4.73-15.52,31.31-15.52,31.31-33.34-7.09-39.65,7.9C145.59,219.11,246.28,210.35,246.28,210.35Z" style="fill:url(#linear-gradient-2)"/><path d="M37.77,141.57s2.85,6,21.06,6.4,34-8.91,34-8.91S107,148,118.23,148s25.34-6.4,25.34-6.4,4.49,4.33,17.66,4.33,11.81-25.25-17.66-16.49c0,0-.23-19-22.45-24C106,102,97.06,110.91,97.06,110.91s6-28.1-30.67-28.1-28.62,34.92-28.62,34.92-2.9-6.37-17.8-2.33-7.67,15.47-7.67,15.47-16.48-3.51-19.59,3.9C-12,145.9,37.77,141.57,37.77,141.57Z" style="fill:url(#linear-gradient-3)"/><path d="M572.31,120.83a129.35,129.35,0,0,0,34.13,5.63c18.62.44,23.76-7.56,23.76-7.56a82.64,82.64,0,0,0,33.38,7.18c11.45,0,32.38-6,32.38-6s4.6,4.43,18,4.43,12.08-25.81-18-16.85c0,0-.42-8.33-16.4-17.29-13.81-7.74-19.27.84-19.27.84s-2.47-13.28-24.55-14.81c-23.35-1.62-23,11.37-23,11.37s-6.68-33-46-14.84c-30.39,14-4.94,36.21-4.94,36.21s-16.84-3.58-20,4C537,124.47,572.31,120.83,572.31,120.83Z" style="fill:url(#linear-gradient-4)"/><path d="M1235.63,113.74s-4.46,9.38-33,10-53.33-14-53.33-14-22.22,14-39.77,14-39.71-10-39.71-10-7,6.79-27.68,6.79S1023.62,81,1069.81,94.69c0,0,.37-29.81,35.19-37.66,23.69-5.34,37.71,8.66,37.71,8.66s-9.35-44,48.06-44,44.86,54.74,44.86,54.74,4.54-10,27.9-3.66,12,24.24,12,24.24,25.82-5.49,30.71,6.12C1313.6,120.53,1235.63,113.74,1235.63,113.74Z" style="fill:url(#linear-gradient-5)"/></g><g id="Far-2" data-name="Far"><path d="M1200,378.8v-179H1087.41a10.86,10.86,0,0,0-10.85,10.86v1.84a10.85,10.85,0,0,1-10.84,10.86h-31.31a10.86,10.86,0,0,0-8.69,4.36l-23.11,31a10.82,10.82,0,0,1-5.34,3.83l-16.63,5.41a10.86,10.86,0,0,0-7.5,10.33V413.64A10.85,10.85,0,0,1,962.3,424.5H941.05a10.86,10.86,0,0,1-10.85-10.86V349a10.84,10.84,0,0,0-8-10.46L905.78,334a10.86,10.86,0,0,1-8-10.47V309.84A10.85,10.85,0,0,0,887,299h-93.5a10.86,10.86,0,0,0-10.85,10.86v15.7a10.85,10.85,0,0,1-10.84,10.86H671.58a10.86,10.86,0,0,0-10.85,10.86v25.13a10.86,10.86,0,0,1-6.88,10.11l-34,13.35A10.85,10.85,0,0,1,605,385.74V364.16a10.86,10.86,0,0,0-4.94-9.11l-16.63-10.8a10.85,10.85,0,0,1-5-9.11V294.43a10.85,10.85,0,0,0-10.84-10.86H529.27a10.85,10.85,0,0,1-10.85-10.85V252.54a10.85,10.85,0,0,0-12.82-10.67l-58.16,10.84a11.07,11.07,0,0,1-2,.18H442a10.85,10.85,0,0,0-10.84,10.86v78.34a10.85,10.85,0,0,1-10.85,10.85h-1.72a10.85,10.85,0,0,1-10.84-10.85V304.47a10.85,10.85,0,0,0-10.84-10.86H291.54a10.85,10.85,0,0,0-10.84,10.86v27.71A10.85,10.85,0,0,1,269.86,343h-8.8a10.84,10.84,0,0,1-10.84-10.85V275.33a10.85,10.85,0,0,0-10.84-10.86H192.73a10.86,10.86,0,0,0-3.1.45l-38.44,11.45a10.75,10.75,0,0,1-3.09.45h-8.91A10.84,10.84,0,0,1,128.35,266v-24.5a10.85,10.85,0,0,0-10.85-10.85H106.33a10.85,10.85,0,0,0-10.85,10.85v34.45a10.84,10.84,0,0,1-10.84,10.85H69.92a10.84,10.84,0,0,1-10.84-10.85V192.47a10.86,10.86,0,0,0-10.85-10.86H0V754.35a10.85,10.85,0,0,0,10.84,10.86H1189.16A10.85,10.85,0,0,0,1200,754.35Z" style="fill:url(#linear-gradient-6)"/></g><g id="Mid-2" data-name="Mid"><path d="M0,361.92H37.17A3.3,3.3,0,0,1,40.23,364l18,43.95A3.32,3.32,0,0,0,61.3,410h26a3.32,3.32,0,0,0,3.31-3.32V391a3.31,3.31,0,0,1,3.3-3.32h54.6a3.32,3.32,0,0,1,3.31,3.32v26.88a3.31,3.31,0,0,0,3.31,3.31h41a3.32,3.32,0,0,1,3.31,3.32V446a3.31,3.31,0,0,0,3.31,3.31h30.36a3.32,3.32,0,0,1,3.31,3.32v45.46a3.31,3.31,0,0,0,3.31,3.31h15.75a3.31,3.31,0,0,0,3.31-3.31V411a3.31,3.31,0,0,1,3.31-3.31h36.77a3.31,3.31,0,0,0,3.31-3.31V378.15a3.31,3.31,0,0,1,3.3-3.32H414.07a3.32,3.32,0,0,1,3.31,3.32V399a3.31,3.31,0,0,0,3.3,3.31H536a3.32,3.32,0,0,1,3.31,3.32V455a3.31,3.31,0,0,0,3.3,3.31h47.1A3.31,3.31,0,0,0,593,455V270.69a3.3,3.3,0,0,1,2.08-3.07l39-15.56a3.33,3.33,0,0,0,2.08-3.08V197.07a3.31,3.31,0,0,1,3.31-3.31h38.87a3.31,3.31,0,0,0,3.31-3.31V161.63a3.3,3.3,0,0,1,3.91-3.25L753.25,171a3.05,3.05,0,0,0,.6.06h28.29a3.31,3.31,0,0,1,3.3,3.31V425.49a3.32,3.32,0,0,0,3.31,3.31h16.79a3.31,3.31,0,0,0,3.31-3.31V372.78a3.31,3.31,0,0,1,3.31-3.31H916a3.31,3.31,0,0,1,3.31,3.31v42.79a3.32,3.32,0,0,0,3.31,3.32h13.91a3.32,3.32,0,0,0,3.31-3.32V343.64a3.32,3.32,0,0,1,3.31-3.32h48.08a3.4,3.4,0,0,1,.94.14l40.55,12.08a3.28,3.28,0,0,0,.94.13h10.9a3.31,3.31,0,0,0,3.31-3.31V298.23a3.32,3.32,0,0,1,3.31-3.32h50a3.32,3.32,0,0,1,3.31,3.32h0a3.31,3.31,0,0,0,3.3,3.31h45.9a3.31,3.31,0,0,1,3.31,3.31v62.47a3.31,3.31,0,0,0,3.31,3.31H1200V837.75a3.31,3.31,0,0,1-3.31,3.31H3.31A3.31,3.31,0,0,1,0,837.75Z" style="fill:url(#linear-gradient-7)"/></g><g id="Front-2" data-name="Front"><path d="M0,537.57H55.51a6.43,6.43,0,0,0,6.43-6.43V477a6.42,6.42,0,0,1,6.42-6.43h48.37a6.43,6.43,0,0,1,6.42,6.43v20.64a6.43,6.43,0,0,0,6.42,6.44h34.75a6.43,6.43,0,0,1,6.42,6.43v15.29a6.43,6.43,0,0,0,6.43,6.43h44a6.43,6.43,0,0,1,6.43,6.44v29.27a6.42,6.42,0,0,0,6.42,6.43h38.24a6.43,6.43,0,0,0,6.42-6.43V497a6.43,6.43,0,0,1,6.42-6.43H350a6.43,6.43,0,0,0,6.43-6.43V464.19a6.42,6.42,0,0,1,6.42-6.43H465.18a6.43,6.43,0,0,1,6.43,6.43v24.55a6.42,6.42,0,0,0,6.42,6.43h54.81a6.43,6.43,0,0,1,6.43,6.44v47.11a6.42,6.42,0,0,0,6.42,6.43h90.64a6.42,6.42,0,0,0,6.42-6.43v-51a6.42,6.42,0,0,1,1.8-4.46l13-13.49a6.46,6.46,0,0,0,1.8-4.46V426.92a6.42,6.42,0,0,1,6.42-6.43h34.93a6.43,6.43,0,0,0,6.43-6.44v-50.4a6.41,6.41,0,0,1,1.67-4.33l33.6-37a6.43,6.43,0,0,1,11.18,4.33v41.45a6.42,6.42,0,0,0,6.42,6.43h2.46a6.43,6.43,0,0,1,6.42,6.44V531.82a6.43,6.43,0,0,0,6.43,6.43h10.55a6.43,6.43,0,0,0,6.43-6.43v-73a6.42,6.42,0,0,1,6.42-6.43h114.2a6.42,6.42,0,0,1,6.42,6.43v29.92a6.43,6.43,0,0,0,6.43,6.43h30.39a6.42,6.42,0,0,0,6.42-6.43V413.09a6.43,6.43,0,0,1,6.43-6.43h74.93a6.42,6.42,0,0,1,6.42,6.43v16.07a6.43,6.43,0,0,0,6.43,6.44h8.48a6.42,6.42,0,0,1,6.42,6.43v25.56a6.43,6.43,0,0,0,6.43,6.43h20a6.43,6.43,0,0,0,6.43-6.43V442a6.42,6.42,0,0,1,6.42-6.43h3.87a6.43,6.43,0,0,0,6.43-6.44h0a6.42,6.42,0,0,1,6.42-6.43H1200V917.55a6.43,6.43,0,0,1-6.42,6.43H6.42A6.43,6.43,0,0,1,0,917.55Z" style="fill:url(#linear-gradient-8)"/></g></g></g></svg>