<svg id="NIGHT" xmlns="http://www.w3.org/2000/svg" xmlns:xlink="http://www.w3.org/1999/xlink" viewBox="0 0 1200 800"><defs><clipPath id="clip-path"><rect width="1200" height="800" style="fill:none"/></clipPath><linearGradient id="linear-gradient" x1="600" y1="687.12" x2="600" y2="0.52" gradientUnits="userSpaceOnUse"><stop offset="0" stop-color="#6ec5d9"/><stop offset="0.13" stop-color="#60b2ce"/><stop offset="0.52" stop-color="#3c7eaf"/><stop offset="0.82" stop-color="#255e9c"/><stop offset="0.98" stop-color="#1d5295"/></linearGradient><radialGradient id="radial-gradient" cx="901.6" cy="164.4" r="139.57" gradientUnits="userSpaceOnUse"><stop offset="0.27" stop-color="#0084ff"/><stop offset="0.33" stop-color="#0282fd" stop-opacity="0.95"/><stop offset="0.45" stop-color="#067ef7" stop-opacity="0.82"/><stop offset="0.62" stop-color="#0e76ef" stop-opacity="0.6"/><stop offset="0.81" stop-color="#186ce3" stop-opacity="0.31"/><stop offset="1" stop-color="#2261d6" stop-opacity="0"/></radialGradient><linearGradient id="linear-gradient-2" x1="600" y1="731.75" x2="600" y2="196.9" gradientUnits="userSpaceOnUse"><stop offset="0" stop-color="#6ec5d9"/><stop offset="0.2" stop-color="#59a7c7"/><stop offset="0.64" stop-color="#2e6aa3"/><stop offset="0.85" stop-color="#1d5295"/></linearGradient><linearGradient id="linear-gradient-3" x1="600" y1="855.17" x2="600" y2="166.26" gradientUnits="userSpaceOnUse"><stop offset="0" stop-color="#49b4c5"/><stop offset="0.12" stop-color="#419fb6"/><stop offset="0.4" stop-color="#2f7095"/><stop offset="0.65" stop-color="#224e7c"/><stop offset="0.86" stop-color="#1a3a6d"/><stop offset="1" stop-color="#173268"/></linearGradient><linearGradient id="linear-gradient-4" x1="600" y1="805.05" x2="600" y2="333.88" gradientUnits="userSpaceOnUse"><stop offset="0" stop-color="#173268"/><stop offset="1" stop-color="#0f284e"/></linearGradient><clipPath id="clip-path-2"><rect x="1456.85" width="1200" height="800" style="fill:none"/></clipPath></defs><title>sparkle_home_christmas_night</title><g style="clip-path:url(#clip-path)"><g id="BG"><rect width="1200" height="900.22" style="fill:url(#linear-gradient)"/></g><g id="Stars"><path d="M268.21,138.75c.2,2.22.24,4.44.25,6.66s0,4.44-.25,6.66c-.19-2.22-.24-4.44-.25-6.66S268,141,268.21,138.75Z" style="fill:#fff"/><path d="M262.83,145.41c1.8-.19,3.59-.24,5.38-.25a51.17,51.17,0,0,1,5.39.25,51.17,51.17,0,0,1-5.39.25C266.42,145.65,264.63,145.6,262.83,145.41Z" style="fill:#fff"/><path d="M827.8,17.07a22.12,22.12,0,0,1,.25,3.44A22.12,22.12,0,0,1,827.8,24a21,21,0,0,1-.25-3.44A21,21,0,0,1,827.8,17.07Z" style="fill:#fff"/><path d="M825,20.51a15.58,15.58,0,0,1,5.56,0,13.82,13.82,0,0,1-2.78.25A13.69,13.69,0,0,1,825,20.51Z" style="fill:#fff"/><path d="M496.51,111a23.9,23.9,0,0,1,2.39,3.51,40.84,40.84,0,0,1,1.88,3.74,38.31,38.31,0,0,1,1.48,3.91,22.69,22.69,0,0,1,1,4.14,23.21,23.21,0,0,1-2.4-3.51,40.27,40.27,0,0,1-3.36-7.65A23.53,23.53,0,0,1,496.51,111Z" style="fill:#fff"/><path d="M492.42,121.9a22,22,0,0,1,3.41-2.35,37.6,37.6,0,0,1,3.64-1.84,35.49,35.49,0,0,1,3.81-1.43,21.39,21.39,0,0,1,4-.92,22.52,22.52,0,0,1-3.41,2.35,37.53,37.53,0,0,1-3.64,1.83,36.37,36.37,0,0,1-3.81,1.44A22.38,22.38,0,0,1,492.42,121.9Z" style="fill:#fff"/><path d="M82.42,44.8c1.18,2.2,2.22,4.45,3.23,6.72s1.94,4.57,2.76,6.93c-1.17-2.2-2.21-4.46-3.22-6.73S83.24,47.15,82.42,44.8Z" style="fill:#fff"/><path d="M76.92,55.36c2.75-1.44,5.57-2.69,8.4-4s5.68-2.45,8.6-3.5c-2.75,1.43-5.58,2.69-8.4,4S79.83,54.3,76.92,55.36Z" style="fill:#fff"/><path d="M595,193.77c-.11,1.35-.32,2.68-.51,4s-.45,2.66-.77,4c.11-1.35.32-2.68.52-4S594.71,195.08,595,193.77Z" style="fill:#fff"/><path d="M591.15,197.25c1.1.07,2.17.23,3.25.39s2.15.37,3.21.64c-1.09-.07-2.17-.24-3.25-.39S592.21,197.52,591.15,197.25Z" style="fill:#fff"/><path d="M1040.05,38a41.27,41.27,0,0,1-.58,6.78,40.17,40.17,0,0,1-1.57,6.63,41.27,41.27,0,0,1,.58-6.78A42.3,42.3,0,0,1,1040.05,38Z" style="fill:#fff"/><path d="M1032.87,43.67a38.81,38.81,0,0,1,12.22,2,33.58,33.58,0,0,1-6.19-.48A34.25,34.25,0,0,1,1032.87,43.67Z" style="fill:#fff"/><path d="M1113.05,146.54a48.83,48.83,0,0,1-3.6,3.73,47,47,0,0,1-3.94,3.37,54.28,54.28,0,0,1,7.54-7.1Z" style="fill:#fff"/><path d="M1106.41,147a35.54,35.54,0,0,1,5.74,6.1,32,32,0,0,1-3.05-2.88A30.79,30.79,0,0,1,1106.41,147Z" style="fill:#fff"/><path d="M939,303c.63,1.05,1.18,2.15,1.73,3.25s1.05,2.21,1.49,3.36c-.63-1.06-1.17-2.15-1.72-3.25S939.49,304.11,939,303Z" style="fill:#fff"/><path d="M938,307.57c.85-.53,1.74-1,2.62-1.42s1.79-.85,2.73-1.19c-.85.53-1.74,1-2.62,1.42S938.92,307.22,938,307.57Z" style="fill:#fff"/><path d="M608.28,55c.63,1.06,1.17,2.16,1.72,3.25s1.06,2.22,1.5,3.36c-.63-1.05-1.17-2.15-1.72-3.25S608.72,56.1,608.28,55Z" style="fill:#fff"/><path d="M607.22,59.56c.84-.53,1.73-1,2.62-1.42s1.79-.84,2.72-1.18c-.84.52-1.73,1-2.62,1.41S608.15,59.22,607.22,59.56Z" style="fill:#fff"/><circle cx="431.32" cy="70.7" r="1.46" style="fill:#fff"/><circle cx="705.01" cy="96.05" r="1.46" style="fill:#fff"/><circle cx="827.8" cy="246.65" r="1.46" style="fill:#fff"/><circle cx="110.75" cy="169.25" r="1.46" style="fill:#fff"/><circle cx="1166.65" cy="37.09" r="3.05" style="fill:#fff"/><circle cx="213.29" cy="56.96" r="3.05" style="fill:#fff"/><circle cx="1011.5" cy="94.59" r="1.46" style="fill:#fff"/></g><g id="Falling_Star" data-name="Falling Star"><path d="M464.48,191.59l-90.23-33.94,91.24,31.11a1.5,1.5,0,1,1-1,2.84Z" style="fill:#fff"/></g><g id="Moon_Rays" data-name="Moon Rays"><circle cx="904.08" cy="165.03" r="141.24" style="fill:url(#radial-gradient)"/></g><g id="Moon"><circle cx="905.08" cy="165.03" r="71.9" style="fill:#fff"/><ellipse cx="932.64" cy="135.11" rx="17.64" ry="20.55" style="fill:#e6e6e6"/><ellipse cx="914.99" cy="176.32" rx="9.7" ry="11.3" style="fill:#e6e6e6"/><ellipse cx="856.31" cy="145.05" rx="10.87" ry="12.65" style="fill:#e6e6e6"/><ellipse cx="881.53" cy="165.03" rx="3.63" ry="4.22" style="fill:#e6e6e6"/><ellipse cx="874.35" cy="206.12" rx="7.18" ry="8.36" style="fill:#e6e6e6"/><ellipse cx="950.28" cy="192.82" rx="4.25" ry="4.94" style="fill:#e6e6e6"/></g><g id="Far"><path d="M1200,378.8v-179H1086.43a9.87,9.87,0,0,0-9.87,9.88v3.8a9.86,9.86,0,0,1-9.86,9.88h-32.78a9.88,9.88,0,0,0-7.91,4l-23.59,31.62a9.83,9.83,0,0,1-4.85,3.49L980,268.14a9.89,9.89,0,0,0-6.82,9.4V414.62a9.86,9.86,0,0,1-9.86,9.88H940.07a9.87,9.87,0,0,1-9.87-9.88V348.23A9.87,9.87,0,0,0,923,338.7l-17.89-4.92a9.87,9.87,0,0,1-7.25-9.52v-15.4A9.86,9.86,0,0,0,888,299H792.49a9.87,9.87,0,0,0-9.87,9.88v17.67a9.86,9.86,0,0,1-9.86,9.87H670.6a9.87,9.87,0,0,0-9.87,9.88v26.78a9.86,9.86,0,0,1-6.26,9.19l-36,14.12A9.87,9.87,0,0,1,605,387.18V363.63a9.88,9.88,0,0,0-4.49-8.29L583,344a9.89,9.89,0,0,1-4.5-8.29V293.45a9.87,9.87,0,0,0-9.86-9.88H528.29a9.87,9.87,0,0,1-9.87-9.87V251.36a9.86,9.86,0,0,0-11.66-9.71l-59.41,11.08a10,10,0,0,1-1.81.16H441a9.87,9.87,0,0,0-9.86,9.88v80.3a9.87,9.87,0,0,1-9.87,9.87H417.6a9.87,9.87,0,0,1-9.86-9.87V303.49a9.87,9.87,0,0,0-9.86-9.88H290.56a9.87,9.87,0,0,0-9.86,9.88v29.67a9.87,9.87,0,0,1-9.87,9.87H260.08a9.86,9.86,0,0,1-9.86-9.87V274.35a9.87,9.87,0,0,0-9.87-9.88H192.58a9.9,9.9,0,0,0-2.81.41l-38.72,11.53a9.9,9.9,0,0,1-2.81.41h-10a9.86,9.86,0,0,1-9.86-9.87V240.49a9.87,9.87,0,0,0-9.87-9.87H105.35a9.87,9.87,0,0,0-9.87,9.87V276.9a9.86,9.86,0,0,1-9.86,9.87H68.94a9.86,9.86,0,0,1-9.86-9.87V191.49a9.87,9.87,0,0,0-9.87-9.88H0V755.33a9.87,9.87,0,0,0,9.86,9.88H1190.14a9.87,9.87,0,0,0,9.86-9.88Z" style="fill:url(#linear-gradient-2)"/></g><g id="Mid"><path d="M0,361.92H37.17A3.3,3.3,0,0,1,40.23,364l18,43.95A3.32,3.32,0,0,0,61.3,410h26a3.32,3.32,0,0,0,3.31-3.32V391a3.31,3.31,0,0,1,3.3-3.32h54.6a3.32,3.32,0,0,1,3.31,3.32v26.88a3.31,3.31,0,0,0,3.31,3.31h41a3.32,3.32,0,0,1,3.31,3.32V446a3.31,3.31,0,0,0,3.31,3.31h30.36a3.32,3.32,0,0,1,3.31,3.32v45.46a3.31,3.31,0,0,0,3.31,3.31h15.75a3.31,3.31,0,0,0,3.31-3.31V411a3.31,3.31,0,0,1,3.31-3.31h36.77a3.31,3.31,0,0,0,3.31-3.31V378.15a3.31,3.31,0,0,1,3.3-3.32H414.07a3.32,3.32,0,0,1,3.31,3.32V399a3.31,3.31,0,0,0,3.3,3.31H536a3.32,3.32,0,0,1,3.31,3.32V455a3.31,3.31,0,0,0,3.3,3.31h47.1A3.31,3.31,0,0,0,593,455V270.69a3.3,3.3,0,0,1,2.08-3.07l39-15.56a3.33,3.33,0,0,0,2.08-3.08V197.07a3.31,3.31,0,0,1,3.31-3.31h38.87a3.31,3.31,0,0,0,3.31-3.31V161.63a3.3,3.3,0,0,1,3.91-3.25L753.25,171a3.05,3.05,0,0,0,.6.06h28.29a3.31,3.31,0,0,1,3.3,3.31V425.49a3.32,3.32,0,0,0,3.31,3.31h16.79a3.31,3.31,0,0,0,3.31-3.31V372.78a3.31,3.31,0,0,1,3.31-3.31H916a3.31,3.31,0,0,1,3.31,3.31v42.79a3.32,3.32,0,0,0,3.31,3.32h13.91a3.32,3.32,0,0,0,3.31-3.32V343.64a3.32,3.32,0,0,1,3.31-3.32h48.08a3.4,3.4,0,0,1,.94.14l40.55,12.08a3.28,3.28,0,0,0,.94.13h10.9a3.31,3.31,0,0,0,3.31-3.31V298.23a3.32,3.32,0,0,1,3.31-3.32h50a3.32,3.32,0,0,1,3.31,3.32h0a3.31,3.31,0,0,0,3.3,3.31h45.9a3.31,3.31,0,0,1,3.31,3.31v62.47a3.31,3.31,0,0,0,3.31,3.31H1200V837.75a3.31,3.31,0,0,1-3.31,3.31H3.31A3.31,3.31,0,0,1,0,837.75Z" style="fill:url(#linear-gradient-3)"/></g><g id="Front"><path d="M0,537.57H61.94V477a6.42,6.42,0,0,1,6.42-6.43h48.37a6.43,6.43,0,0,1,6.42,6.43v20.64a6.43,6.43,0,0,0,6.42,6.44h34.75a6.43,6.43,0,0,1,6.42,6.43v15.29a6.43,6.43,0,0,0,6.43,6.43h44a6.43,6.43,0,0,1,6.43,6.44v29.27a6.42,6.42,0,0,0,6.42,6.43h38.24a6.43,6.43,0,0,0,6.42-6.43V497a6.43,6.43,0,0,1,6.42-6.43H350a6.43,6.43,0,0,0,6.43-6.43V464.19a6.42,6.42,0,0,1,6.42-6.43H465.18a6.43,6.43,0,0,1,6.43,6.43v24.55a6.42,6.42,0,0,0,6.42,6.43h54.81a6.43,6.43,0,0,1,6.43,6.44v47.11a6.42,6.42,0,0,0,6.42,6.43h90.64a6.42,6.42,0,0,0,6.42-6.43v-51a6.42,6.42,0,0,1,1.8-4.46l13-13.49a6.46,6.46,0,0,0,1.8-4.46V426.92a6.42,6.42,0,0,1,6.42-6.43h34.93a6.43,6.43,0,0,0,6.43-6.44v-50.4a6.41,6.41,0,0,1,1.67-4.33l33.6-37a6.43,6.43,0,0,1,11.18,4.33v41.45a6.42,6.42,0,0,0,6.42,6.43h2.46a6.43,6.43,0,0,1,6.42,6.44V531.82a6.43,6.43,0,0,0,6.43,6.43h10.55a6.43,6.43,0,0,0,6.43-6.43v-73a6.42,6.42,0,0,1,6.42-6.43h114.2a6.42,6.42,0,0,1,6.42,6.43v29.92a6.43,6.43,0,0,0,6.43,6.43h30.39a6.42,6.42,0,0,0,6.42-6.43V413.09a6.43,6.43,0,0,1,6.43-6.43h74.93a6.42,6.42,0,0,1,6.42,6.43v16.07a6.43,6.43,0,0,0,6.43,6.44h8.48a6.42,6.42,0,0,1,6.42,6.43v25.56a6.43,6.43,0,0,0,6.43,6.43h20a6.43,6.43,0,0,0,6.43-6.43V442a6.42,6.42,0,0,1,6.42-6.43h3.87a6.43,6.43,0,0,0,6.43-6.44h0a6.42,6.42,0,0,1,6.42-6.43H1200V917.55a6.43,6.43,0,0,1-6.42,6.43H6.42A6.43,6.43,0,0,1,0,917.55Z" style="fill:url(#linear-gradient-4)"/></g></g></svg>